<svg xmlns="http://www.w3.org/2000/svg" viewBox="0 0 634 320" role="img" aria-label="hiya">
  <defs>
    <linearGradient id="gold" gradientUnits="userSpaceOnUse" x1="48" y1="40" x2="258.14183467741935" y2="300">
      <stop offset="0" stop-color="#f7ead0"/>
      <stop offset="0.38" stop-color="#ecd6a6"/>
      <stop offset="0.64" stop-color="#e2be7f"/>
      <stop offset="1" stop-color="#d9b16a"/>
    </linearGradient>
    <radialGradient id="rayfade" gradientUnits="userSpaceOnUse" cx="542" cy="196" r="102">
      <stop offset="0" stop-color="#ffcf7a" stop-opacity="0.08"/>
      <stop offset="0.55" stop-color="#ffcf7a" stop-opacity="0.03"/>
      <stop offset="1" stop-color="#ffcf7a" stop-opacity="0"/>
    </radialGradient>
    <mask id="raymask">
      <rect x="436" y="90" width="212" height="212" fill="white"/>
      <circle cx="542" cy="196" r="39" fill="none" stroke="black" stroke-width="14"/>
      <circle cx="542" cy="196" r="66" fill="none" stroke="black" stroke-width="17"/>
    </mask>
  </defs>
  <rect width="634" height="320" fill="#0a0806"/>
  <path d="M542,196 L641.4,218.9 L611.6,270.6 Z M542,196 L571.8,293.5 L512.2,293.5 Z M542,196 L472.4,270.6 L442.6,218.9 Z M542,196 L442.6,173.1 L472.4,121.4 Z M542,196 L512.2,98.5 L571.8,98.5 Z M542,196 L611.6,121.4 L641.4,173.1 Z" fill="url(#rayfade)" mask="url(#raymask)"/>
  <circle cx="542" cy="196" r="39" fill="none" stroke="#e08830" stroke-width="14" opacity="0.45"/>
  <circle cx="542" cy="196" r="66" fill="none" stroke="#e08830" stroke-width="17" opacity="0.1"/>
  <g fill="url(#gold)">
    <path transform="translate(48.0 220) scale(0.105847 -0.105847)" d="M445.6819645166397 588.1776812076569V0H100.00859808921814V1490H443.99300238490105V787.2223456501961H395.730998262763Q443.5397778302431 925.2044319659472 535.2597266957164 1008.0068551972508Q626.9796755611897 1090.8092784285545 777.6733056604862 1090.8092784285545Q893.5223060399294 1090.8092784285545 975.9845039844513 1040.678102619946Q1058.4467019289732 990.5469268113375 1102.5310856103897 897.1824679896235Q1146.6154692918062 803.8180091679096 1146.6154692918062 674.2492941617966V0H800.8887700736523V603.8219113498926Q800.8887700736523 697.5813810229301 755.5067881941795 747.8878199607134Q710.1248063147068 798.1942588984966 626.8674595803022 798.1942588984966Q572.1699617505074 798.1942588984966 531.3257851824164 775.0876908376813Q490.4816086143255 751.981122776866 468.0817865654826 705.3836065009236Q445.6819645166397 658.7860902249813 445.6819645166397 588.1776812076569Z"/>
    <path transform="translate(173.49 220) scale(0.105847 -0.105847)" d="M100.00859808921814 0V1069.7781982421875H445.6819645166397V0ZM272.1386043280363 1178.6216493099928Q191.04491129517555 1178.6216493099928 137.7580082193017 1228.0071537761978Q84.47110514342785 1277.3926582424028 84.47110514342785 1351.6159410461696Q84.47110514342785 1426.0670773684978 137.7580082193017 1474.9139341935515Q191.04491129517555 1523.7607910186052 271.7761479415072 1523.7607910186052Q353.068484504308 1523.7607910186052 406.4639604038426 1474.995363811297Q459.85943630337715 1426.229936603989 459.85943630337715 1351.2785643334641Q459.85943630337715 1277.1287055164576 406.4145781183763 1227.8751774132252Q352.9697199333755 1178.6216493099928 272.1386043280363 1178.6216493099928Z"/>
    <path transform="translate(224.78 220) scale(0.105847 -0.105847)" d="M124.94641926884651 -412.239787325263 142.2625944018364 -147.9184185117483 266.0490630418062 -150.54962944984436Q308.1604136824608 -154.16752414405346 334.95388658344746 -144.71424194425344Q361.7473594844341 -135.26095974445343 377.8051120340824 -111.07655856758356Q393.8628645837307 -86.89215739071369 402.9515209943056 -46.63003771007061L416.5820114463568 1.1910240352153778L8.14199435710907 1069.7781982421875H370.17096354067326L528.5301182717085 569.9748920351267Q560.2901426851749 467.570101454854 586.5189661979675 364.1319618076086Q612.7477897107601 260.6938221603632 639.9033577442169 153.9021750241518H547.6763264983892Q573.6496674269438 260.6938221603632 601.30744330585 364.62308119237423Q628.9652191847563 468.55234022438526 661.5830555558205 569.9748920351267L824.7912570536137 1069.7781982421875H1182.8290896266699L724.2427156567574 -141.92806477844715Q688.9982061088085 -236.18161295354366 639.678084038198 -297.84626057744026Q590.3579619675875 -359.51090820133686 520.7265580222011 -389.64437011629343Q451.09515407681465 -419.77783203125 354.4056613445282 -419.77783203125Q296.32526068389416 -419.77783203125 236.9115245193243 -417.71554036438465Q177.49778835475445 -415.6532486975193 124.94641926884651 -412.239787325263Z"/>
    <path transform="translate(344.34 220) scale(0.105847 -0.105847)" d="M421.0218679457903 -18.64446099102497Q315.03962917625904 -18.64446099102497 233.1196396201849 16.302194960415363Q151.19965006411076 51.2488509118557 104.4663425013423 121.6488454863429Q57.73303493857384 192.04884006083012 57.73303493857384 298.32888129353523Q57.73303493857384 388.58221435546875 89.9463229700923 449.75339341908693Q122.15961100161076 510.9245724827051 178.91735120862722 549.1890988498926Q235.6750914156437 587.4536252170801 310.1995240598917 607.4514518231153Q384.7239567041397 627.4492784291506 468.56847493350506 634.4092393666506Q563.6039602309465 642.4447246640921 620.730609536171 652.0203107371926Q677.8572588413954 661.5958968102932 703.1417085751891 679.4225934520364Q728.4261583089828 697.2492900937796 728.4261583089828 729.4492041021585V734.675814345479Q728.4261583089828 767.7288433164358 710.421831458807 792.0485945641994Q692.4175046086311 816.3683458119631 659.4510805904865 829.9037521705031Q626.4846565723419 843.4391585290432 580.0538943111897 843.4391585290432Q532.6897930204868 843.4391585290432 497.021159529686 829.1726239696145Q461.3525260388851 814.9060894101858 440.28599839657545 788.6418390572071Q419.2194707542658 762.3775887042284 413.9661230444908 726.3377739787102L94.95982313156128 735.4580067247152Q106.20878173410892 845.8135937452316 166.30661322176456 925.3358562514186Q226.4044447094202 1004.8581187576056 333.2334838807583 1047.83369859308Q440.06252305209637 1090.8092784285545 590.2584244757891 1090.8092784285545Q702.6320483386517 1090.8092784285545 791.9189241528511 1066.211473658681Q881.2057999670506 1041.6136688888073 943.6570475250483 994.0758536756039Q1006.108295083046 946.5380384624004 1038.7350253611803 878.091347925365Q1071.3617556393147 809.6446573883295 1071.3617556393147 721.8935530632734V0H736.5241395384073V150.27560818195343H731.4218923598528Q700.4306323230267 93.22203125059605 656.6616497114301 55.74425998330116Q612.8926670998335 18.26648871600628 554.7127049416304 -0.188986137509346Q496.53274278342724 -18.64446099102497 421.0218679457903 -18.64446099102497ZM525.956232637167 208.29429687559605Q583.888994410634 208.29429687559605 630.4820863157511 230.3363315165043Q677.0751782208681 252.37836615741253 704.2706877961755 291.822561442852Q731.4661973714828 331.2667567282915 731.4661973714828 384.1687939465046V482.26614908874035Q717.4439195394516 475.92396077513695 697.7306785732508 469.9017618820071Q678.0174376070499 463.8795629888773 653.6042886003852 458.54847778379917Q629.1911395937204 453.21739257872105 601.2846938744187 448.28186428546906Q573.378248155117 443.34633599221706 542.9873220473528 438.4352403432131Q495.96080891788006 431.1952501088381 460.3543874770403 415.4530632868409Q424.7479660362005 399.71087646484375 404.76593424379826 374.7021119520068Q384.783902451396 349.6933474391699 384.783902451396 314.2225461155176Q384.783902451396 280.7871809899807 402.73045491427183 256.9228800460696Q420.6770073771477 233.05857910215855 452.3567811399698 220.6764379888773Q484.036554902792 208.29429687559605 525.956232637167 208.29429687559605Z"/>
  </g>
  <circle cx="542" cy="196" r="24" fill="#ffe8a3"/>
</svg>
